<mxfile host="65bd71144e">
    <diagram id="PH_vss8K-VmZNLm1NRz3" name="Page-1">
        <mxGraphModel dx="1133" dy="825" grid="1" gridSize="10" guides="1" tooltips="1" connect="1" arrows="1" fold="1" page="1" pageScale="1" pageWidth="850" pageHeight="1100" math="0" shadow="0">
            <root>
                <mxCell id="0"/>
                <mxCell id="1" parent="0"/>
                <mxCell id="6" value="" style="edgeStyle=none;html=1;fontSize=15;" parent="1" source="4" target="5" edge="1">
                    <mxGeometry relative="1" as="geometry"/>
                </mxCell>
                <mxCell id="4" value="Start" style="ellipse;fontSize=15;" parent="1" vertex="1">
                    <mxGeometry x="362.94" y="190" width="90" height="90" as="geometry"/>
                </mxCell>
                <mxCell id="8" value="" style="edgeStyle=none;html=1;fontSize=15;" parent="1" source="5" target="7" edge="1">
                    <mxGeometry relative="1" as="geometry"/>
                </mxCell>
                <mxCell id="5" value="Username and Password" style="whiteSpace=wrap;html=1;fillColor=none;fontSize=15;align=center;" parent="1" vertex="1">
                    <mxGeometry x="302.94" y="330" width="210" height="60" as="geometry"/>
                </mxCell>
                <mxCell id="9" style="edgeStyle=orthogonalEdgeStyle;html=1;exitX=0;exitY=0.5;exitDx=0;exitDy=0;fontSize=15;entryX=0;entryY=0.5;entryDx=0;entryDy=0;" parent="1" source="7" target="5" edge="1">
                    <mxGeometry relative="1" as="geometry">
                        <mxPoint x="222.94" y="520.1764705882354" as="targetPoint"/>
                        <Array as="points">
                            <mxPoint x="243" y="500"/>
                            <mxPoint x="243" y="360"/>
                        </Array>
                    </mxGeometry>
                </mxCell>
                <mxCell id="18" value="No" style="edgeLabel;html=1;align=center;verticalAlign=middle;resizable=0;points=[];fontSize=15;" parent="9" vertex="1" connectable="0">
                    <mxGeometry x="-0.0215" y="3" relative="1" as="geometry">
                        <mxPoint y="-26" as="offset"/>
                    </mxGeometry>
                </mxCell>
                <mxCell id="12" value="" style="edgeStyle=orthogonalEdgeStyle;html=1;fontSize=15;" parent="1" source="7" target="11" edge="1">
                    <mxGeometry relative="1" as="geometry"/>
                </mxCell>
                <mxCell id="17" value="Yes" style="edgeLabel;html=1;align=center;verticalAlign=middle;resizable=0;points=[];fontSize=15;" parent="12" vertex="1" connectable="0">
                    <mxGeometry x="-0.2909" y="-1" relative="1" as="geometry">
                        <mxPoint as="offset"/>
                    </mxGeometry>
                </mxCell>
                <mxCell id="7" value="&amp;nbsp;Validate Credentials" style="rhombus;whiteSpace=wrap;html=1;fontSize=15;fillColor=none;" parent="1" vertex="1">
                    <mxGeometry x="342.94" y="435" width="130" height="130" as="geometry"/>
                </mxCell>
                <mxCell id="16" value="" style="edgeStyle=orthogonalEdgeStyle;html=1;fontSize=15;" parent="1" source="11" target="15" edge="1">
                    <mxGeometry relative="1" as="geometry"/>
                </mxCell>
                <mxCell id="11" value="Dashboard" style="whiteSpace=wrap;html=1;fontSize=15;fillColor=none;" parent="1" vertex="1">
                    <mxGeometry x="327.94" y="655" width="160" height="80" as="geometry"/>
                </mxCell>
                <mxCell id="15" value="End" style="ellipse;html=1;shape=endState;fontSize=15;" parent="1" vertex="1">
                    <mxGeometry x="362.94" y="795" width="90" height="90" as="geometry"/>
                </mxCell>
            </root>
        </mxGraphModel>
    </diagram>
</mxfile>